<svg width="102" height="24" viewBox="0 0 102 24" fill="none" xmlns="http://www.w3.org/2000/svg">
<path fill-rule="evenodd" clip-rule="evenodd" d="M18.3807 5.61628C16.6834 3.94186 14.3993 3 11.9895 3C7.06519 3 3 7.06047 3 11.9791C3 13.5279 3.461 15.014 4.23632 16.3326C4.25728 16.3953 4.25728 16.4581 4.25728 16.5L3.20955 20.2047C3.10477 20.5395 3.41909 20.8744 3.77532 20.7907L7.67288 19.8488C7.71478 19.8279 7.77765 19.8488 7.81956 19.8698C9.11874 20.5605 10.5227 21 12.0105 21C16.9558 21 21 16.9395 21 12.0209C21 9.59302 20.057 7.31163 18.3807 5.61628Z" fill="white"/>
<path fill-rule="evenodd" clip-rule="evenodd" d="M16.1386 13.8209C15.9081 13.7162 14.7975 13.172 14.6089 13.0883C14.4203 13.0046 14.2527 12.9837 14.106 13.193C13.9593 13.4232 13.5193 13.9255 13.3936 14.072C13.2678 14.2185 13.1212 14.2395 12.9116 14.1348C12.6811 14.0302 11.9687 13.779 11.1095 13.0255C10.439 12.4395 9.97797 11.686 9.85224 11.4767C9.72652 11.2464 9.83129 11.1209 9.95702 11.0162C10.0618 10.9116 10.1875 10.7441 10.2923 10.6185C10.3971 10.493 10.439 10.3883 10.5228 10.2418C10.6066 10.0953 10.5647 9.9697 10.5018 9.84412C10.439 9.73947 9.99893 8.63017 9.81034 8.1697C9.60079 7.7511 9.4122 7.81389 9.28647 7.81389C9.16074 7.81389 9.01406 7.81389 8.86738 7.81389C8.7207 7.81389 8.46924 7.87668 8.2597 8.08598C8.05015 8.31622 7.48438 8.8604 7.48438 9.9697C7.48438 11.079 8.28065 12.1464 8.40638 12.293C8.51115 12.4395 9.99893 14.7209 12.2411 15.6837C12.7649 15.9139 13.205 16.0604 13.5193 16.1651C14.0641 16.3325 14.5461 16.3116 14.9442 16.2488C15.3633 16.186 16.2853 15.7046 16.4739 15.1813C16.6625 14.6581 16.6625 14.1976 16.5996 14.1139C16.5158 14.0092 16.3691 13.9464 16.1386 13.8209Z" fill="#01049B"/>
<path d="M59.5902 4.68436C59.8432 3.65276 59.0647 2.73795 58.2277 3.06884L41.4885 9.5504C40.8852 9.78397 40.8268 10.7961 41.3912 11.0881L44.5444 12.6452C45.1478 12.9372 45.829 12.8982 46.4324 12.5089L54.4517 7.33148C54.6852 7.17577 54.8993 7.56505 54.6852 7.77916L48.6903 13.6184C48.1064 14.1829 48.1064 15.2534 48.6708 15.7595L54.1792 20.7423C54.802 21.3067 55.6974 20.898 55.9309 19.9637L59.5902 4.68436Z" fill="white"/>
<path fill-rule="evenodd" clip-rule="evenodd" d="M91.5526 13.8174C91.0897 14.1447 90.5497 14.2987 90.0096 14.2987C89.4696 14.2987 88.9296 14.1447 88.4667 13.8174L80.5979 8.36907C80.3472 8.19581 80 8.36907 80 8.6771V18.2838C80 18.8999 80.2507 19.4582 80.6364 19.8625C81.0415 20.286 81.6201 20.5555 82.2565 20.5555H97.7435C98.3799 20.5555 98.9585 20.286 99.3636 19.8625C99.7493 19.4582 100 18.8999 100 18.2838V8.6771C100 8.36907 99.6528 8.17655 99.4021 8.36907L91.5526 13.8174Z" fill="white"/>
<path fill-rule="evenodd" clip-rule="evenodd" d="M89.3543 12.5468C89.74 12.8163 90.28 12.8163 90.6657 12.5468L99.4796 6.44389C99.6532 6.32838 99.6918 6.07811 99.5761 5.90484C99.171 5.36579 98.5153 5 97.7631 5H82.2761C81.5433 5 80.8875 5.34653 80.4632 5.90484C80.3282 6.07811 80.3668 6.32838 80.5597 6.44389L89.3543 12.5468Z" fill="white"/>
</svg>
